<svg width="488" height="148" viewBox="0 0 488 148" fill="none" xmlns="http://www.w3.org/2000/svg">
<path d="M96.5741 96.8695L96.4563 96.8737L96.5497 96.9848L96.5741 96.8695Z" fill="#79B4EB"/>
<path d="M485.058 30.7883L483.04 31.5826C482.598 30.0484 482.276 28.6274 481.766 27.2842C481.534 26.5703 481.034 25.9746 480.371 25.6235C473.11 23.802 465.874 21.8664 458.545 20.411C451.216 18.9556 443.969 18.2375 436.725 16.8986C432.101 16.0439 427.577 14.6212 422.999 13.5001C405.884 9.32573 388.776 5.12956 371.631 1.04652C368.93 0.547137 366.204 0.197742 363.464 0L362.896 3.59037L351.463 0.58904C351.913 2.22125 352.214 3.89032 352.363 5.57699C352.301 9.14641 352.99 10.0304 356.487 10.1678C357.149 10.1234 357.815 10.1594 358.469 10.2742C369.054 13.5453 379.63 16.8366 390.197 20.1496C392.048 20.7562 393.96 21.4333 395.841 21.8522C401.045 22.918 406.269 23.833 411.487 24.82C412.304 24.9784 413.497 25.6152 413.887 25.3135C416.143 23.5397 418.345 24.8988 420.419 25.3713C425.949 26.619 431.468 28.0115 436.867 29.7577C439.719 30.6777 443.171 30.6643 445.063 33.7469L442.755 34.6116C444.328 35.6531 445.492 36.4332 447.037 37.4571C439.02 39.9766 431.361 42.3805 423.694 44.8213C419.612 46.1142 415.07 46.0765 411.576 49.0912C411.132 49.3476 410.648 49.5277 410.143 49.6233C405.463 51.2731 400.654 52.7075 396.151 54.664C390.078 57.2941 384.193 60.1958 377.521 61.249C374.037 61.7995 370.711 63.3848 367.314 64.4531C365.606 64.9608 362.909 66.1925 362.286 65.5474C360.355 63.5188 359.33 65.5742 357.998 65.8741C352.617 67.0908 347.291 68.5311 341.874 69.4963C340.939 69.6631 339.709 68.7096 338.356 69.3363C327.37 74.3611 315.556 75.9079 303.732 77.6507C291.908 79.3935 279.84 81.5016 267.922 83.5637C261.064 84.7468 254.307 86.6094 247.412 87.366C234.862 88.7393 222.26 89.9543 209.681 90.3841C197.379 90.8374 185.023 92.6506 172.716 89.2153C168.081 87.914 163.543 85.4833 158.296 86.172C155.823 86.5039 153.203 85.4297 150.632 85.2127C144.88 84.756 139.134 84.1318 133.386 84.7183C130.714 85.0451 128.019 85.1255 125.333 84.9579C121.937 84.6546 118.377 84.5708 115.587 82.0957C114.845 82.2775 114.086 82.3806 113.321 82.4015C107.582 81.9608 102.288 77.9105 96.1664 80.0982C83.2151 79.7002 70.7175 76.9485 58.2621 73.9598C52.5178 72.5697 47.0157 70.1574 41.3694 68.2286C38.9263 67.3815 36.5003 66.5059 34.5473 65.8105L34.8904 63.6303C33.8431 63.4635 32.7837 63.3831 31.7232 63.3906C31.1352 63.4417 30.519 64.402 30.0342 64.2729C28.2056 63.7409 26.3081 63.0798 24.2881 62.4011L25.5712 59.9813C24.1512 59.2808 22.8077 58.6239 21.4667 57.9385L9.03562 51.6543L0 59.2422C0.395066 59.3135 0.791396 59.3696 1.19433 59.4341C-0.443177 61.3998 -0.233034 62.6726 1.86593 63.7023C20.4176 72.7516 39.7711 79.7982 59.3524 86.2383C59.4922 86.3246 59.6182 86.431 59.7261 86.555L58.7038 87.6551C59.2081 87.9224 59.7285 88.157 60.2619 88.3598C66.9154 90.369 73.5596 92.3993 80.2429 94.3163C82.1782 94.8786 84.2834 95.5799 86.1947 95.331C87.6551 95.1517 89.0586 94.6171 90.271 95.5179C92.1822 96.9465 94.2518 97.0613 96.4563 96.8736C94.9112 95.8489 93.3754 94.8032 91.8161 93.7776L92.0121 93.3712L124.138 100.444C125.485 100.05 126.255 99.5775 126.978 99.6554C135.003 100.405 143.022 101.308 151.05 102.028C152.979 102.074 154.908 101.979 156.824 101.743L156.676 102.861L155.873 103.951C158.07 104.187 159.973 104.534 161.91 104.572C169.308 104.654 176.705 104.736 184.095 104.57C191.983 104.374 199.82 104.021 207.665 103.566C210.957 103.378 214.196 102.551 217.482 102.342C225.848 101.772 234.301 101.384 242.69 101.05C258.045 100.315 273.326 99.1719 288.469 96.427C294.888 95.2649 301.291 94.0348 307.7 92.8274C312.015 92.0214 316.328 91.1642 320.661 90.4252C324.993 89.6862 329.546 89.0829 333.974 88.3304C337.307 87.7598 340.608 86.5449 343.931 86.5055C350.502 86.436 356.642 84.7166 362.819 82.8976C365.977 81.9767 369.184 81.2562 372.363 80.4384L372.577 81.1581L364.904 83.5754C364.985 83.8159 365.06 84.0488 365.143 84.2742C368.4 82.5591 372.588 83.5511 375.181 80.8372C376.353 80.7785 377.478 81.0157 378.321 80.6294C381.562 79.1019 385.075 78.5548 388.119 76.0252C391.007 73.5995 395.281 72.6954 399.11 71.5332C402.938 70.3711 407.164 69.9362 411.003 68.7389C415.423 67.4603 419.705 65.7518 423.791 63.637C427.6 61.5389 431.929 60.8292 435.538 58.1739C439.147 55.5195 443.318 53.9493 447.301 52.0272C450.643 50.4285 454.077 49.0208 457.462 47.521C457.177 48.1083 456.998 48.9027 456.517 49.1599C455.138 49.9006 453.557 50.3028 452.16 51.0058C451.441 51.4272 450.764 51.9149 450.137 52.4637L450.495 52.969L465.407 46.5784L460.729 55.4868C460.905 55.5681 461.072 55.6552 461.24 55.7432L463.379 54.7109C463.525 54.8844 463.676 55.0653 463.822 55.2379L450.004 79.9549C449.03 79.2578 448.11 78.5933 447.19 77.9297L447.151 77.9632L447.197 78.0185C446.589 80.1216 445.866 82.1896 445.031 84.2131C441.63 91.3502 437.484 98.1606 434.768 105.555C430.684 116.77 422.365 125.259 416.952 135.563C416.514 136.605 416.154 137.678 415.877 138.774L419.144 138.205C419.474 139.605 420.188 140.871 419.906 141.861C419.622 142.85 418.365 143.798 417.635 144.639L419.294 146.615C420.294 146.702 421.368 146.511 422.144 146.907C425.188 148.47 426.689 147.988 428.015 144.66C429.783 140.276 431.37 135.87 433.289 131.507C434.632 128.407 436.266 125.463 437.816 122.418C437.808 125.605 435.077 127.898 435.935 131.204C437.936 127.564 439.608 123.784 441.481 120.118C444.155 114.879 447.045 109.754 449.704 104.514C452.106 99.8129 454.132 94.8903 456.659 90.2442C461.253 81.81 466.167 73.5492 470.809 65.141C475.063 57.4207 479.107 49.6098 483.298 41.8619C483.647 41.4329 484.12 41.1203 484.652 40.9662C485.154 40.8061 485.669 40.6922 486.192 40.626L485.133 39.2208C486.171 37.9322 488.075 36.6024 487.998 35.3917C487.901 33.7419 486.161 32.3577 485.058 30.7883ZM466.584 44.3831C463.879 45.7011 461.174 47.0342 458.432 48.2759C458.321 48.3689 457.865 47.7455 457.552 47.4045L466.249 43.7915L466.584 44.3831Z" fill="#79B4EB"/>
<path d="M449.089 77.8108C449.59 76.642 449.988 75.4321 450.28 74.1945L449.052 73.7228L447.153 77.8536C447.882 77.8594 448.958 78.0698 449.089 77.8108Z" fill="#79B4EB"/>
<path d="M435.605 58.4931C435.726 58.7814 435.839 59.0754 435.945 59.362L442.755 56.5559L442.442 55.7985L435.605 58.4931Z" fill="#79B4EB"/>
<path d="M452.147 68.8411C451.296 69.9053 450.526 71.0347 449.737 72.1408C451.854 72.2958 453.465 72.057 452.697 69.6556C452.647 69.4687 452.987 69.1696 453.14 68.9207C452.82 68.9073 452.249 68.6752 452.147 68.8411Z" fill="#79B4EB"/>
<path d="M457.752 62.4573C456.405 62.5813 452.509 66.8596 453.179 67.9614L453.692 68.108L453.57 68.0753L457.752 62.4573Z" fill="#79B4EB"/>
</svg>
