<svg display="none" xmlns="http://www.w3.org/2000/svg">
  <symbol id="cursor" viewBox="0 0 50 50">
    <path d="M25 0L31.8022 8.57804L42.6777 7.32233L41.422 18.1978L50 25L41.422 31.8022L42.6777 42.6777L31.8022 41.422L25 50L18.1978 41.422L7.32233 42.6777L8.57804 31.8022L0 25L8.57804 18.1978L7.32233 7.32233L18.1978 8.57804L25 0Z" />
  </symbol>

  <symbol id="logo" viewBox="0 0 239 48">
    <path d="M31.6649 39.4676C31.6649 40.2043 31.6649 40.941 31.6649 41.6778C31.6999 42.3794 31.6999 43.0986 31.6649 43.8353C31.6298 44.6773 31.297 45.4842 30.6664 46.256C30.0708 46.9927 29.3351 47.3611 28.4592 47.3611H19V0H28.4592C29.5453 0 30.3511 0.420988 30.8766 1.26296C31.4021 2.06986 31.6649 2.99954 31.6649 4.05201V39.4676ZM26.4623 42.4671V4.78873H24.2026V42.4671H26.4623Z" />
    <path d="M48.7067 0V41.1515V47.3611H43.6092V21.6282H41.0868V47.3611H35.8842V45.5193V4.31512C35.8842 2.84167 36.252 1.75412 36.9877 1.05247C37.7235 0.350823 38.9146 0 40.5612 0H48.7067ZM41.1919 16.9447H43.4516V4.73611H41.1919V16.9447Z" />
    <path d="M65.6397 16.2606C65.6397 16.7518 65.5521 17.1552 65.377 17.471C65.2018 17.7516 64.9741 17.9972 64.6938 18.2077C64.4135 18.4182 64.0982 18.5936 63.7479 18.7339C63.3975 18.8743 63.0647 19.0321 62.7494 19.2076C64.7814 20.1548 65.7623 21.7159 65.6923 23.891V24.7856V45.5719V47.3611H60.5948V24.7856V21.5756H58.0723V47.3611H52.9223V32.2582V0H57.9147H61.6458C63.0472 0 64.0632 0.315741 64.6938 0.947223C65.3594 1.54362 65.6923 2.36805 65.6923 3.42052L65.6397 16.2606ZM60.4371 16.6816V4.73611H58.1774V16.6816H60.4371Z" />
    <path d="M69.9091 0H75.1117V47.3611H69.9091V0Z" />
    <path d="M77.8637 0H86.0617C87.6732 0 88.8469 0.350823 89.5826 1.05247C90.3183 1.75412 90.6862 2.84167 90.6862 4.31512V47.3611H85.5361V4.73611H83.0137V47.3611H77.8637V0Z" />
    <path d="M107.724 0V41.1515V47.3611H102.627V21.6282H100.104V47.3611H94.9018V45.5193V4.31512C94.9018 2.84167 95.2696 1.75412 96.0054 1.05247C96.7411 0.350823 97.9322 0 99.5789 0H107.724ZM100.209 16.9447H102.469V4.73611H100.209V16.9447Z" />
    <path d="M132.77 43.5196C132.77 44.7475 132.402 45.6947 131.666 46.3613C130.93 47.0278 129.932 47.3611 128.671 47.3611H123.941C122.925 47.3611 122.032 47.0629 121.261 46.4665C120.49 45.8701 120.105 45.1158 120.105 44.2037V43.3617H120V27.8378H125.202V42.5197H127.567L127.514 27.7852C127.514 26.9432 127.514 26.2766 127.514 25.7855C127.514 25.2943 127.444 24.8909 127.304 24.5751C127.199 24.2243 127.024 23.9086 126.779 23.6279C126.533 23.3122 126.166 22.9087 125.675 22.4176C124.274 20.9792 123.188 19.8566 122.417 19.0497C121.681 18.2428 121.138 17.5762 120.788 17.05C120.437 16.5238 120.227 16.0677 120.157 15.6818C120.122 15.2959 120.105 14.8047 120.105 14.2083V3.89413C120.105 2.66625 120.473 1.71903 121.208 1.05247C121.944 0.350823 122.942 0 124.204 0H128.933C129.949 0 130.843 0.315741 131.613 0.947223C132.384 1.54362 132.77 2.29789 132.77 3.21003V12.6296H127.725V4.73611H125.307L125.255 11.735C125.255 12.3665 125.272 12.8752 125.307 13.2611C125.342 13.6119 125.465 13.9803 125.675 14.3662C125.885 14.717 126.201 15.138 126.621 15.6292C127.076 16.1203 127.707 16.8044 128.513 17.6815C129.599 18.8041 130.44 19.6987 131.035 20.3653C131.631 21.0318 132.051 21.6633 132.297 22.2597C132.577 22.8561 132.734 23.5051 132.77 24.2068C132.84 24.9084 132.875 25.8732 132.875 27.1011L132.77 40.8884V43.5196Z" />
    <path d="M148.729 0V41.1515V47.3611H143.631V21.6282H141.109V47.3611H135.906V45.5193V4.31512C135.906 2.84167 136.274 1.75412 137.01 1.05247C137.745 0.350823 138.937 0 140.583 0H148.729ZM141.214 16.9447H143.474V4.73611H141.214V16.9447Z" />
    <path d="M165.609 39.4676C165.609 40.2043 165.609 40.941 165.609 41.6778C165.644 42.3794 165.644 43.0986 165.609 43.8353C165.574 44.6773 165.241 45.4842 164.611 46.256C164.015 46.9927 163.279 47.3611 162.404 47.3611H152.944V0H162.404C163.49 0 164.295 0.420988 164.821 1.26296C165.346 2.06986 165.609 2.99954 165.609 4.05201V39.4676ZM160.407 42.4671V4.78873H158.147V42.4671H160.407Z" />
    <path d="M182.546 16.2606C182.546 16.7518 182.458 17.1552 182.283 17.471C182.108 17.7516 181.88 17.9972 181.6 18.2077C181.32 18.4182 181.004 18.5936 180.654 18.7339C180.304 18.8743 179.971 19.0321 179.656 19.2076C181.688 20.1548 182.669 21.7159 182.598 23.891V24.7856V45.5719V47.3611H177.501V24.7856V21.5756H174.979V47.3611H169.828V32.2582V0H174.821H178.552C179.953 0 180.969 0.315741 181.6 0.947223C182.266 1.54362 182.598 2.36805 182.598 3.42052L182.546 16.2606ZM177.343 16.6816V4.73611H175.084V16.6816H177.343Z" />
    <path d="M186.815 0H192.018V47.3611H186.815V0Z" />
    <path d="M199.92 21.5756L199.972 26.1539V42.7829H203.598V47.3611H194.77V0H203.546V4.73611H200.025V16.8921H203.598V21.5756H199.92Z" />
    <path d="M216.662 6.52531L217.503 0H222.548L216.925 47.3611H211.985C211.109 39.3974 210.216 31.5039 209.305 23.6806C208.429 15.8221 207.536 7.9286 206.625 0H211.67C212.16 4.28004 212.633 8.57762 213.089 12.8927C213.579 17.2079 214.052 21.5405 214.507 25.8907L216.662 6.52531Z" />
    <path d="M239 0V41.1515V47.3611H233.903V21.6282H231.38V47.3611H226.177V45.5193V4.31512C226.177 2.84167 226.545 1.75412 227.281 1.05247C228.017 0.350823 229.208 0 230.855 0H239ZM231.485 16.9447H233.745V4.73611H231.485V16.9447Z" />
    <path d="M7 0L8.90462 2.40185L11.9497 2.05025L11.5981 5.09538L14 7L11.5981 8.90462L11.9497 11.9497L8.90462 11.5981L7 14L5.09538 11.5981L2.05025 11.9497L2.40185 8.90462L0 7L2.40185 5.09538L2.05025 2.05025L5.09538 2.40185L7 0Z" />
  </symbol>

  <symbol id="tg" viewBox="0 0 33 30">
    <path d="M24.8686 2.5657C24.8686 2.5657 27.1813 1.64805 26.9886 3.87662C26.9244 4.79428 26.3462 8.00604 25.8965 11.48L24.3547 21.7708C24.3547 21.7708 24.2263 23.2783 23.0699 23.5405C21.9135 23.8027 20.1791 22.6229 19.8578 22.3607C19.6008 22.1641 15.0398 19.2145 13.4337 17.7725C12.984 17.3792 12.4701 16.5926 13.4979 15.675L20.2433 9.12036C21.0142 8.33379 21.7851 6.4985 18.573 8.72707L9.57923 14.954C9.57923 14.954 8.55137 15.6094 6.62417 15.0195L2.44847 13.7086C2.44847 13.7086 0.906672 12.7254 3.54057 11.7422C9.96471 8.66147 17.8664 5.51525 24.8686 2.5657Z"/>
  </symbol>

  <symbol id="wa" viewBox="0 0 34 35">
    <path d="M8.19767 10.8558C8.32753 9.82518 9.66219 8.42446 10.7214 8.57989L10.7197 8.57819C11.7505 8.77477 12.5665 10.5553 13.0267 11.3559C13.3527 11.9368 13.141 12.5253 12.8369 12.7737C12.4267 13.1055 11.7852 13.5633 11.9198 14.023C12.159 14.8402 14.9999 17.6913 16.3972 18.5018C16.9261 18.8085 17.3096 17.9994 17.6371 17.5849C17.8751 17.266 18.462 17.0754 19.0395 17.3902C19.902 17.8943 20.7145 18.4801 21.4659 19.1396C21.8411 19.4543 21.9291 19.9195 21.6692 20.4111C21.2112 21.2771 19.8867 22.4189 18.9252 22.1869C17.2459 21.7817 10.4545 19.1396 8.27305 11.4852C8.15037 11.1231 8.18125 10.9862 8.19767 10.8558Z" />
    <path fill-rule="evenodd" clip-rule="evenodd" d="M15 27.955C13.6095 27.955 12.8402 27.8052 11.5909 27.3848L9.19822 28.5854C7.68707 29.3436 5.90909 28.2409 5.90909 26.5453V23.9635C3.46199 21.6736 2.5 19.0332 2.5 15.4105C2.5 8.48233 8.09644 2.86597 15 2.86597C21.9035 2.86597 27.5 8.48233 27.5 15.4105C27.5 22.3386 21.9035 27.955 15 27.955ZM8.18182 22.9717L7.45903 22.2953C5.55781 20.5163 4.77273 18.5273 4.77273 15.4105C4.77273 9.74199 9.35164 5.14678 15 5.14678C20.6484 5.14678 25.2273 9.74199 25.2273 15.4105C25.2273 21.079 20.6484 25.6741 15 25.6741C13.8799 25.6741 13.3545 25.5727 12.3136 25.2223L11.4187 24.9211L8.18182 26.5453V22.9717Z" />
  </symbol>

  <symbol id="arrow" viewBox="0 0 121 8">
    <path d="M120.354 4.3538C120.549 4.15854 120.549 3.84195 120.354 3.64669L117.172 0.46471C116.976 0.269448 116.66 0.269448 116.464 0.46471C116.269 0.659972 116.269 0.976555 116.464 1.17182L119.293 4.00024L116.464 6.82867C116.269 7.02393 116.269 7.34052 116.464 7.53578C116.66 7.73104 116.976 7.73104 117.172 7.53578L120.354 4.3538ZM0 4.50024H120V3.50024H0V4.50024Z" />
  </symbol>
</svg>